<svg id="Layer_1" data-name="Layer 1" xmlns="http://www.w3.org/2000/svg" viewBox="0 0 960.29 229.16"><title>Mars Enterprises logo-01</title><path d="M959.6,39V30.68s-1.88-21.19-34.73-21.3H847.2s-30.07,1.77-29.68,32.53V52s-2.85,24,32.84,30.76l66.3,4.73s7,.1,7,7.1c0,0-.32,7.13-10.11,7.1h-96s-3,28.65,33.47,29.58h73.25s36.39,2.38,36-33.13V89.83s2.69-24.06-30.31-31.35l-65-5.33s-10.17-.6-10.1-6.5c0,0-.69-7.62,12.63-7.69Z" fill="#9d2a3b" fill-rule="evenodd"/><path d="M655.48,130.64V9.38H769.77s31.39-1.6,31.57,27.21V72.67s0,7.63-8.21,11.83a16.07,16.07,0,0,1,8.21,14.2v32.54H764.72V108.17s.5-10.76-14.53-10.65l-41.67.59L695.89,67.94h56.83s12.6.42,12.63-11.83V50.2S765.46,39,749.56,39H692.1v91.68H655.48" fill="#9d2a3b" fill-rule="evenodd"/><path d="M478.55,130.64,539.17,9.38h40.42l60.62,121.26H603.58l-10.1-20.11H555L543.59,81h33.47L559.38,48.42l-44.83,82.22Z" fill="#9d2a3b" fill-rule="evenodd"/><path d="M426,131.24V52l-48.62,79.26H361.62L313,52v79.27H275.74V9.38h34.73A25.85,25.85,0,0,1,333.2,21.8l36.32,58.65,36.3-58.63A25.86,25.86,0,0,1,428.55,9.4h34.73V131.24Z" fill="#9d2a3b" fill-rule="evenodd"/><path d="M228.48,86.61s-7.83,44-56.76,81.5C106.86,217.05,64.88,221,64.88,221s39.86,18.41,89,0c61.68-25.26,71.23-70.48,71.23-70.48s5.7-11.85,5.56-36.35A163.21,163.21,0,0,0,228.48,86.61Z" fill="#9d2a3b" fill-rule="evenodd"/><path d="M147.26,3.63C83.52-11.12,43.48,23.84,43.48,23.84S7.82,52,1.76,91.93C-6,138.78,14.59,168.52,14.59,168.52s8-17.74,26.67-38.73a10.86,10.86,0,0,1,15.22-15.26c16.89-15.07,39.25-30.07,59.75-40.69,69.4-36,103.77-11.7,103.77-11.7S198.13,14.73,147.26,3.63Z" fill="#3a3a39" fill-rule="evenodd"/><path d="M170.49,90.11c-9.57-15.18-40-18.1-89.57,10.33a202.47,202.47,0,0,0-22.39,16.15,10.86,10.86,0,0,1-15.68,14.86c-18.72,20.23-27,40.6-19.39,52.72,9.57,15.18,32.36,23.42,93-8.9C159.4,147.2,182.47,106.49,170.49,90.11Z" fill="#3a3a39" fill-rule="evenodd"/><path d="M302.39,218.32H275.73V171.2h26.66v6.51H283.44v12.83h17.75V197H283.44v14.79h18.95Z" fill="#3a3a39"/><path d="M379.54,218.32H370.1l-23.17-37.54h-.26l.16,2.09q.45,6,.45,11v24.49h-7V171.2h9.34l23.11,37.35h.19c0-.49-.12-2.29-.25-5.39s-.2-5.53-.2-7.27V171.2h7.06Z" fill="#3a3a39"/><path d="M436,218.32h-7.7V177.81H414.42V171.2h35.41v6.61H436Z" fill="#3a3a39"/><path d="M511.42,218.32H484.77V171.2h26.65v6.51H492.47v12.83h17.76V197H492.47v14.79h18.95Z" fill="#3a3a39"/><path d="M557,199.5v18.82h-7.7V171.2h13.31q9.12,0,13.5,3.42t4.38,10.31q0,8.81-9.15,12.54l13.31,20.85h-8.77L564.63,199.5Zm0-6.38h5.35c3.59,0,6.18-.67,7.8-2a7.25,7.25,0,0,0,2.41-5.93c0-2.66-.87-4.58-2.61-5.74s-4.36-1.74-7.86-1.74H557Z" fill="#3a3a39"/><path d="M650.43,185.45q0,7.38-4.84,11.31t-13.76,3.93h-4.9v17.63h-7.7V171.2H632.8q8.82,0,13.23,3.61T650.43,185.45Zm-23.5,8.76H631c4,0,6.86-.68,8.71-2.06s2.77-3.52,2.77-6.44q0-4.07-2.48-6.06t-7.74-2h-5.35Z" fill="#3a3a39"/><path d="M695.26,199.5v18.82h-7.7V171.2h13.31q9.12,0,13.5,3.42t4.38,10.31q0,8.81-9.15,12.54l13.31,20.85h-8.77L702.86,199.5Zm0-6.38h5.35q5.39,0,7.8-2a7.25,7.25,0,0,0,2.41-5.93c0-2.66-.87-4.58-2.61-5.74s-4.36-1.74-7.86-1.74h-5.09Z" fill="#3a3a39"/><path d="M757.46,218.32V171.2h7.7v47.12Z" fill="#3a3a39"/><path d="M832.49,205.53a11.88,11.88,0,0,1-4.55,9.86Q823.41,219,815.41,219t-13.09-2.48V209.2a35.75,35.75,0,0,0,6.85,2.38,29.07,29.07,0,0,0,6.75.87q4.59,0,6.76-1.74a5.66,5.66,0,0,0,2.17-4.67,5.84,5.84,0,0,0-2-4.48q-2-1.83-8.25-4.35-6.44-2.61-9.08-6a12.59,12.59,0,0,1-2.65-8.06,11.3,11.3,0,0,1,4.19-9.28q4.19-3.37,11.25-3.38a33.15,33.15,0,0,1,13.47,3l-2.45,6.29a29.31,29.31,0,0,0-11.21-2.65,8.65,8.65,0,0,0-5.68,1.63,5.35,5.35,0,0,0-1.93,4.3,6.13,6.13,0,0,0,.77,3.15,7.94,7.94,0,0,0,2.55,2.46,43.72,43.72,0,0,0,6.38,3.06,35,35,0,0,1,7.61,4,11.84,11.84,0,0,1,3.54,4.22A12.75,12.75,0,0,1,832.49,205.53Z" fill="#3a3a39"/><path d="M896,218.32H869.33V171.2H896v6.51H877v12.83h17.76V197H877v14.79h19Z" fill="#3a3a39"/><path d="M961.05,205.53a11.87,11.87,0,0,1-4.54,9.86Q952,219,944,219t-13.08-2.48V209.2a35.66,35.66,0,0,0,6.84,2.38,29.09,29.09,0,0,0,6.76.87q4.57,0,6.75-1.74a5.66,5.66,0,0,0,2.17-4.67,5.87,5.87,0,0,0-2-4.48q-2-1.83-8.25-4.35-6.45-2.61-9.09-6a12.64,12.64,0,0,1-2.64-8.06,11.29,11.29,0,0,1,4.18-9.28q4.2-3.37,11.25-3.38a33.15,33.15,0,0,1,13.47,3l-2.45,6.29a29.27,29.27,0,0,0-11.21-2.65,8.63,8.63,0,0,0-5.67,1.63,5.35,5.35,0,0,0-1.94,4.3,6,6,0,0,0,.78,3.15,7.79,7.79,0,0,0,2.54,2.46,43.72,43.72,0,0,0,6.38,3.06,34.76,34.76,0,0,1,7.61,4,11.84,11.84,0,0,1,3.54,4.22A12.61,12.61,0,0,1,961.05,205.53Z" fill="#3a3a39"/></svg>