<svg xmlns="http://www.w3.org/2000/svg" xmlns:xlink="http://www.w3.org/1999/xlink" viewBox="0 0 692.09 590"><defs><linearGradient id="linear-gradient" x1="456.84" y1="284.99" x2="557.06" y2="590.01" gradientTransform="matrix(-1, 0, 0, 1, 884.02, 0)" gradientUnits="userSpaceOnUse"><stop offset="0" stop-color="#ffada6"/><stop offset="0.99" stop-color="#ffe7db"/></linearGradient><linearGradient id="linear-gradient-2" x1="506.83" y1="325.71" x2="600.04" y2="325.71" gradientTransform="matrix(1, 0, 0, 1, 0, 0)" xlink:href="#linear-gradient"/><linearGradient id="linear-gradient-3" x1="288.8" y1="261.72" x2="362.65" y2="261.72" gradientTransform="matrix(1, 0, 0, 1, 0, 0)" xlink:href="#linear-gradient"/><linearGradient id="linear-gradient-4" x1="267.31" y1="261.61" x2="615.65" y2="261.61" gradientTransform="matrix(0.89, -0.12, -0.11, -0.99, 73.31, 581.31)" gradientUnits="userSpaceOnUse"><stop offset="0.01" stop-color="#4d4d4d"/><stop offset="1" stop-color="#333"/></linearGradient><linearGradient id="linear-gradient-5" x1="383" y1="180.14" x2="483.57" y2="180.14" gradientTransform="matrix(0.99, 0.14, -0.14, 0.99, 43.9, -58.4)" gradientUnits="userSpaceOnUse"><stop offset="0" stop-color="#ffada6"/><stop offset="0.24" stop-color="#ffb2ab"/><stop offset="0.53" stop-color="#ffc1b9"/><stop offset="0.85" stop-color="#ffdacf"/><stop offset="0.99" stop-color="#ffe7db"/></linearGradient><linearGradient id="linear-gradient-6" x1="385.64" y1="199.1" x2="486.21" y2="199.1" gradientTransform="translate(40.97 -58.63) rotate(7.93)" xlink:href="#linear-gradient-5"/><linearGradient id="linear-gradient-7" x1="388.28" y1="218.07" x2="488.85" y2="218.07" gradientTransform="matrix(0.99, 0.14, -0.14, 0.99, 38.03, -58.86)" xlink:href="#linear-gradient-5"/><linearGradient id="linear-gradient-8" x1="390.92" y1="237.03" x2="491.49" y2="237.03" gradientTransform="translate(35.09 -59.08) rotate(7.93)" xlink:href="#linear-gradient-5"/><linearGradient id="linear-gradient-9" x1="393.48" y1="255.44" x2="494.06" y2="255.44" gradientTransform="translate(32.24 -59.3) rotate(7.93)" xlink:href="#linear-gradient-5"/><linearGradient id="GradientFill_15" x1="428.1" y1="291.09" x2="447.88" y2="308.98" gradientTransform="translate(35.75 -61.84) rotate(8.15)" gradientUnits="userSpaceOnUse"><stop offset="0" stop-color="#cd6667"/><stop offset="1" stop-color="#971c54"/></linearGradient><linearGradient id="linear-gradient-10" x1="517.23" y1="352.42" x2="513.73" y2="434.92" gradientTransform="matrix(-1, 0, 0, 1, 884.02, 0)" gradientUnits="userSpaceOnUse"><stop offset="0" stop-color="#16192d"/><stop offset="1" stop-color="#283342"/></linearGradient><linearGradient id="GradientFill_15-2" x1="346.93" y1="311.58" x2="422.6" y2="311.58" gradientTransform="matrix(1, 0, 0, 1, 0, 0)" xlink:href="#GradientFill_15"/><linearGradient id="GradientFill_15-3" x1="333.29" y1="316.05" x2="358.63" y2="316.05" gradientTransform="matrix(1, 0, 0, 1, 0, 0)" xlink:href="#GradientFill_15"/><linearGradient id="GradientFill_15-4" x1="346.93" y1="305.24" x2="422.6" y2="305.24" gradientTransform="matrix(1, 0, 0, 1, 0, 0)" xlink:href="#GradientFill_15"/><linearGradient id="GradientFill_15-5" x1="333.29" y1="305.24" x2="358.63" y2="305.24" gradientTransform="matrix(1, 0, 0, 1, 0, 0)" xlink:href="#GradientFill_15"/><linearGradient id="GradientFill_15-6" x1="346.93" y1="332.27" x2="422.6" y2="332.27" gradientTransform="matrix(1, 0, 0, 1, 0, 0)" xlink:href="#GradientFill_15"/><linearGradient id="GradientFill_15-7" x1="333.29" y1="332.27" x2="358.63" y2="332.27" gradientTransform="matrix(1, 0, 0, 1, 0, 0)" xlink:href="#GradientFill_15"/><linearGradient id="linear-gradient-11" x1="342.93" y1="279.41" x2="390.43" y2="279.41" gradientTransform="matrix(1, 0, 0, 1, 0, 0)" xlink:href="#linear-gradient-10"/></defs><title>Vector Smart Object</title><g style="isolation:isolate"><g id="BACKGROUND"><path d="M11.76,450.37C65.76,395.2,239.93,330,289.21,337.31c15.78,2.34,30.89,9.76,46.83,9,31.26-1.48,50.18-35.78,79-48,25.83-11,56.47-2.33,79.37,13.9s40,39.12,58.4,60.33,39.41,41.71,66.08,50.47c13.89,4.57,28.74,5.73,42.56,10.52s27.31,14.56,30.52,28.83V591h-499S-48.89,511,11.76,450.37Z" fill="url(#linear-gradient)"/></g><g id="OBJECTS"><path d="M285.61,398.45c2.32-8.12,56.36.5,124.84,9.27s123.6,18.84,123.14,22.49-43.85,5.56-112.33-3.21S284.6,402,285.61,398.45Z" fill="#c8c8c8" style="mix-blend-mode:multiply"/><path d="M335.38,439.43c.7-6.67,17.38-4.56,38.51-3.59s38.16,4.15,38,7.1-13.51,8.29-34.64,7.32S335.08,442.34,335.38,439.43Z" fill="#c8c8c8" style="mix-blend-mode:multiply"/><path d="M322.11,128.62c3.27-7.27-.27-16.85-7.48-20.26s-16.85,0-20.4,7.09a16.92,16.92,0,0,0-32.46-6.21c1-6.82-4.44-13.65-11.17-15.08s-14,2-17.91,7.69S228,115,229.63,121.66c.7,2.85,2,5.8,4.55,7.24,2,1.12,4.41,1.12,6.7,1.1" fill="#ebebeb"/><path d="M552,86c-3.27-7.28.27-16.86,7.48-20.26s16.85-.06,20.4,7.09a16.92,16.92,0,0,1,32.46-6.22c-1-6.81,4.44-13.64,11.17-15.08s14,2,17.91,7.7,4.72,13.12,3.06,19.8c-.7,2.85-2,5.8-4.55,7.24-2,1.12-4.41,1.13-6.7,1.1" fill="#ebebeb"/><path d="M601.58,215.93a11.43,11.43,0,0,1,20.67-9.76,12.54,12.54,0,0,1,24.07-4.61c-.73-5.06,3.29-10.12,8.28-11.18s10.38,1.5,13.28,5.7a18.34,18.34,0,0,1,2.27,14.69c-.52,2.11-1.48,4.3-3.37,5.37a9.83,9.83,0,0,1-5,.81" fill="#ebebeb"/><path d="M507.29,402.49c-.56,7.15,8.1,12.15,15.13,10.77s12.46-6.82,17.45-12,10.49-10.54,17.55-11.78c11.63-2,22.53,7.9,34.3,7.05s19.71-11.62,26.51-21.15,16-19.77,27.7-18.81c4.26.35,8.31,2.24,12.59,2.37s9.24-2.58,9.19-6.86-4.57-6.67-8.44-8.25l-34.14-14c-12.69-5.2-27.17-10.41-39.67-4.75-10.91,4.93-17.49,17.13-28.81,21-14.86,5.14-32.09-6-46.54.26-10.88,4.68-15.87,18-14.58,29.78S503,398.57,509,408.77" fill="#ebebeb"/><path d="M666.38,353.35c-16.23-9-43.67-7.86-60.93-1.07-10.81,4.26-20.59,11.52-32.06,13.37-9.93,1.6-20-1.06-30.11-.87-16.33.31-33.36,12-43,25.19" fill="none" stroke="#fff9f7" stroke-miterlimit="10" stroke-width="0.65"/><path d="M569.31,365.88s7.87-36,23.93-42.8" fill="none" stroke="#fff9f7" stroke-miterlimit="10" stroke-width="0.65"/><path d="M629.2,347.31s1.72,8.8,16.73,9.29" fill="none" stroke="#fff9f7" stroke-miterlimit="10" stroke-width="0.65"/><path d="M526.11,369.36s-2-17.14,11.35-22" fill="none" stroke="#fff9f7" stroke-miterlimit="10" stroke-width="0.65"/><path d="M512.25,377.53s10.53,17.41,32,19.15" fill="none" stroke="#fff9f7" stroke-miterlimit="10" stroke-width="0.65"/><path d="M605.14,322.9s-13.36,9-20.52,39.83" fill="none" stroke="#fff9f7" stroke-miterlimit="10" stroke-width="0.65"/><path d="M573.39,365.65s16,21.12,34.69,21.62" fill="none" stroke="#fff9f7" stroke-miterlimit="10" stroke-width="0.65"/><path d="M628.52,363.4s-19.77-.94-25.49-9.55" fill="none" stroke="#fff9f7" stroke-miterlimit="10" stroke-width="0.65"/><path d="M652.94,341.15s-3.75-2-9.88,5.3" fill="none" stroke="#fff9f7" stroke-miterlimit="10" stroke-width="0.65"/><path d="M631.44,332.58s-6.32,3.32-9.36,14.84" fill="none" stroke="#fff9f7" stroke-miterlimit="10" stroke-width="0.65"/><path d="M557.42,389.51s-29-2.05-26.56-22.4" fill="none" stroke="#fff9f7" stroke-miterlimit="10" stroke-width="0.65"/><path d="M556.65,346.16s-8.54,7.62-3.86,17.88" fill="none" stroke="#fff9f7" stroke-miterlimit="10" stroke-width="0.65"/><path d="M513.28,345.64s-9.9,18.73-5.45,34.22" fill="none" stroke="#fff9f7" stroke-miterlimit="10" stroke-width="0.65"/><path d="M359.43,346.9c6.8-3,7.14-13.35,2.43-19.1s-12.32-8.05-19.47-10.09-14.76-4.43-19.34-10.28c-7.55-9.63-3.8-24.46-10.34-34.8s-20.26-12.34-32.29-13.89-25.92-5-30.74-16.12c-1.77-4.06-2-8.69-4-12.66s-6.87-7.19-10.76-5.05-3.86,7.44-3.42,11.76q2,19,3.92,38c1.45,14.15,3.78,29.93,15.06,38.58,9.84,7.56,24.21,7.61,33.32,16,12,11.07,10.25,32.25,23,42.41,9.59,7.66,24.21,5.7,34.35-1.23s16.81-17.74,23.19-28.23" fill="#ebebeb"/><path d="M236.7,225.53c-.26,19.22,14.18,43.75,28.83,56.21,9.17,7.8,20.6,13.18,27.9,22.76,6.32,8.3,8.83,18.84,13.93,27.95,8.27,14.76,27.28,24.62,44,27" fill="none" stroke="#fff9f7" stroke-miterlimit="10" stroke-width="0.67"/><path d="M295.63,308.12s-36.78,10.42-50.82-.94" fill="none" stroke="#fff9f7" stroke-miterlimit="10" stroke-width="0.67"/><path d="M249.37,262.47s7.2-5.89.31-19.85" fill="none" stroke="#fff9f7" stroke-miterlimit="10" stroke-width="0.67"/><path d="M319.94,345.89s-14.69,10.21-25.7.41" fill="none" stroke="#fff9f7" stroke-miterlimit="10" stroke-width="0.67"/><path d="M334.18,354.57s10.76-18.14,1.87-38.6" fill="none" stroke="#fff9f7" stroke-miterlimit="10" stroke-width="0.67"/><path d="M238.82,296.39s14.76,7.81,46.44-.72" fill="none" stroke="#fff9f7" stroke-miterlimit="10" stroke-width="0.67"/><path d="M293.43,304.5s11.46-25,2.79-42.28" fill="none" stroke="#fff9f7" stroke-miterlimit="10" stroke-width="0.67"/><path d="M264.41,255.21s8.8,18.54,3.74,28" fill="none" stroke="#fff9f7" stroke-miterlimit="10" stroke-width="0.67"/><path d="M232.13,243.78s0,4.39,9.67,6.43" fill="none" stroke="#fff9f7" stroke-miterlimit="10" stroke-width="0.67"/><path d="M234.81,267.61s6.12,4.16,18.15,1.31" fill="none" stroke="#fff9f7" stroke-miterlimit="10" stroke-width="0.67"/><path d="M323.05,307.43s12.32,27.52-7.49,35.22" fill="none" stroke="#fff9f7" stroke-miterlimit="10" stroke-width="0.67"/><path d="M283.8,329.33s11.14,4.07,18.23-5.21" fill="none" stroke="#fff9f7" stroke-miterlimit="10" stroke-width="0.67"/><path d="M304.53,369.22s22-.11,34-11.75" fill="none" stroke="#fff9f7" stroke-miterlimit="10" stroke-width="0.67"/><g style="mix-blend-mode:multiply"><path d="M526.58,369.23c2.06,4.51,8.57,4.39,12,1s4.7-8.61,5.78-13.51,2.36-10.14,5.89-13.44c5.83-5.42,15.23-3.38,21.53-8.15S579,321,579.61,312.82s2.39-17.7,9.24-21.34c2.5-1.33,5.39-1.65,7.82-3.12s4.31-4.9,2.86-7.45-4.77-2.37-7.46-1.93l-23.75,3.91c-8.83,1.46-18.66,3.56-23.77,11.48-4.46,6.91-4.08,16.64-9.11,23.08-6.6,8.47-19.93,8-25.94,17-4.53,6.75-2.88,16.58,1.75,23.21s11.6,10.79,18.36,14.76" fill="url(#linear-gradient-2)"/><path d="M599.2,282.13c-12.06.46-27,11.05-34.43,21.38-4.63,6.47-7.68,14.38-13.48,19.64-5,4.55-11.57,6.6-17.13,10.36-9,6.08-14.67,19.28-15.66,30.7" fill="none" stroke="#fff9f7" stroke-miterlimit="10" stroke-width="0.44"/><path d="M580.19,309.68s-10.86,5.83-20.35,1.94" fill="none" stroke="#fff9f7" stroke-miterlimit="10" stroke-width="0.44"/><path d="M536.19,333s28.64,5.27,39-1.48" fill="none" stroke="#fff9f7" stroke-miterlimit="10" stroke-width="0.44"/><path d="M576.39,291.93s3.9,4.68,12.46-.45" fill="none" stroke="#fff9f7" stroke-miterlimit="10" stroke-width="0.44"/><path d="M526.08,342.47s-6.81-9.61-1-17.38" fill="none" stroke="#fff9f7" stroke-miterlimit="10" stroke-width="0.44"/><path d="M521.05,352.4s11.68,6.68,24.25,0" fill="none" stroke="#fff9f7" stroke-miterlimit="10" stroke-width="0.44"/><path d="M554.82,285.92s-4.48,10.24,1.78,31.41" fill="none" stroke="#fff9f7" stroke-miterlimit="10" stroke-width="0.44"/><path d="M587.62,279.64s-2.75.16-3.76,6.76" fill="none" stroke="#fff9f7" stroke-miterlimit="10" stroke-width="0.44"/><path d="M572.75,282.25s-2.43,4.28-.3,12.32" fill="none" stroke="#fff9f7" stroke-miterlimit="10" stroke-width="0.44"/><path d="M550.29,343.29s-16.91,9.25-22.3-3.9" fill="none" stroke="#fff9f7" stroke-miterlimit="10" stroke-width="0.44"/><path d="M535.44,317.45s-2.23,7.68,3.79,12.17" fill="none" stroke="#fff9f7" stroke-miterlimit="10" stroke-width="0.44"/><path d="M511,332.81s.69,14.87,8.33,22.59" fill="none" stroke="#fff9f7" stroke-miterlimit="10" stroke-width="0.44"/></g><g style="mix-blend-mode:multiply"><path d="M356.8,305.71c4.95-.37,7.09-6.51,5.13-10.94s-6.44-7.4-10.67-10.11-8.69-5.73-10.55-10.19c-3.07-7.35,2.11-15.46-.18-23s-10.76-11.61-18.23-15-15.78-8.38-16.81-16.06c-.38-2.81.32-5.64-.22-8.43s-3.09-5.74-6-5.27-3.88,3.66-4.4,6.34q-2.28,11.82-4.57,23.63c-1.7,8.78-3.14,18.73,2.52,26.27,4.94,6.58,14.19,9.6,18.49,16.55,5.65,9.13.6,21.48,6.92,30.22,4.76,6.59,14.55,8.46,22.38,6.41s14.14-7.13,20.21-12.09" fill="url(#linear-gradient-3)"/><path d="M300.31,207.38c-3.75,11.48,1,29.19,8.1,39.71,4.47,6.59,10.83,12.19,13.75,19.46,2.53,6.29,2.18,13.14,3.77,19.66,2.58,10.57,13,20.44,23.36,25.33" fill="none" stroke="#fff9f7" stroke-miterlimit="10" stroke-width="0.44"/><path d="M319.56,234.77s1.69,12.21-5.25,19.76" fill="none" stroke="#fff9f7" stroke-miterlimit="10" stroke-width="0.44"/><path d="M326.13,284.12s14.88-25,12.13-37.06" fill="none" stroke="#fff9f7" stroke-miterlimit="10" stroke-width="0.44"/><path d="M301.59,232.17s5.74-2,3.9-11.83" fill="none" stroke="#fff9f7" stroke-miterlimit="10" stroke-width="0.44"/><path d="M331.53,296.89s-11.37,3.06-16.64-5.11" fill="none" stroke="#fff9f7" stroke-miterlimit="10" stroke-width="0.44"/><path d="M339.1,305.06s10.32-8.64,8.4-22.76" fill="none" stroke="#fff9f7" stroke-miterlimit="10" stroke-width="0.44"/><path d="M288.47,250.32s8,7.75,30.07,9.23" fill="none" stroke="#fff9f7" stroke-miterlimit="10" stroke-width="0.44"/><path d="M294,217.38s-.81,2.63,5,5.87" fill="none" stroke="#fff9f7" stroke-miterlimit="10" stroke-width="0.44"/><path d="M291.24,232.23s3.17,3.76,11.46,4.56" fill="none" stroke="#fff9f7" stroke-miterlimit="10" stroke-width="0.44"/><path d="M340.71,274.47s2.81,19.07-11.4,19.56" fill="none" stroke="#fff9f7" stroke-miterlimit="10" stroke-width="0.44"/><path d="M311.32,279.43s6.43,4.77,12.72.67" fill="none" stroke="#fff9f7" stroke-miterlimit="10" stroke-width="0.44"/><path d="M317.25,307.67s14.18,4.51,24.08,0" fill="none" stroke="#fff9f7" stroke-miterlimit="10" stroke-width="0.44"/></g><ellipse cx="359.93" cy="92.33" rx="62.33" ry="62" fill="#ff8788" opacity="0.71" style="mix-blend-mode:multiply"/><path d="M462.17,68.11A10,10,0,0,0,444,59.54a11,11,0,0,0-21.11-4c.63-4.43-2.89-8.87-7.27-9.81S406.57,47,404,50.7a16.08,16.08,0,0,0-2,12.88c.46,1.85,1.3,3.77,3,4.7a8.53,8.53,0,0,0,4.35.72" fill="#ebebeb"/><path d="M525.43,420.07l37.2-277A9,9,0,0,0,554.91,133L361.83,107a9,9,0,0,0-10.12,7.72l-37.21,277a9,9,0,0,0,7.72,10.12l193.09,25.93A9,9,0,0,0,525.43,420.07Z" fill="#959595"/><rect x="291.37" y="162.87" width="294.39" height="209.06" rx="9" ry="9" transform="translate(761.98 -131.66) rotate(97.65)" fill="url(#linear-gradient-4)"/><rect x="312.32" y="184.91" width="252.49" height="165" transform="translate(761.98 -131.66) rotate(97.65)" fill="#fff"/><polygon points="429.2 416.84 487.37 424.1 447.72 118.57 389.55 111.31 429.2 416.84" fill="#fff" opacity="0.17"/><path d="M460.54,135.68a3,3,0,1,0-2.86-3.37A3.13,3.13,0,0,0,460.54,135.68Z" fill="#333"/><rect x="397.52" y="174.41" width="101.37" height="10.7" rx="5.09" ry="5.09" transform="translate(32.9 -66.65) rotate(8.83)" fill="url(#linear-gradient-5)"/><rect x="394.58" y="193.33" width="101.37" height="10.7" rx="5.09" ry="5.09" transform="matrix(0.99, 0.15, -0.15, 0.99, 35.76, -65.98)" fill="url(#linear-gradient-6)"/><rect x="391.65" y="212.25" width="101.37" height="10.7" rx="5.09" ry="5.09" transform="translate(38.63 -65.3) rotate(8.83)" fill="url(#linear-gradient-7)"/><rect x="388.71" y="231.18" width="101.37" height="10.7" rx="5.09" ry="5.09" transform="translate(41.5 -64.63) rotate(8.83)" fill="url(#linear-gradient-8)"/><rect x="385.85" y="249.54" width="101.37" height="10.7" rx="5.09" ry="5.09" transform="translate(44.29 -63.97) rotate(8.83)" fill="url(#linear-gradient-9)"/><text transform="matrix(0.99, 0.15, -0.15, 0.99, 402.16, 174.22)" font-size="4.32" fill="#fff" font-family="Montserrat-Light, Montserrat Light" letter-spacing="0.08em">-----------------</text><text transform="matrix(0.99, 0.15, -0.15, 0.99, 399.26, 192.91)" font-size="4.32" fill="#fff" font-family="Montserrat-Light, Montserrat Light" letter-spacing="0.08em">-----------------</text><text transform="matrix(0.99, 0.15, -0.15, 0.99, 396.35, 211.6)" font-size="4.32" fill="#fff" font-family="Montserrat-Light, Montserrat Light" letter-spacing="0.08em">-----------------</text><text transform="matrix(0.99, 0.15, -0.15, 0.99, 393.39, 230.69)" font-size="4.32" fill="#fff" font-family="Montserrat-Light, Montserrat Light" letter-spacing="0.08em">-----------------</text><text transform="matrix(0.99, 0.15, -0.15, 0.99, 390.55, 248.98)" font-size="4.32" fill="#fff" font-family="Montserrat-Light, Montserrat Light" letter-spacing="0.08em">-----------------</text><rect x="398.11" y="293.94" width="62.7" height="13.01" transform="translate(55.72 -67.01) rotate(9.54)" fill="url(#GradientFill_15)"/><text transform="matrix(0.99, 0.17, -0.17, 0.99, 410.65, 299.29)" font-size="4.32" fill="#fff" font-family="Montserrat-Light, Montserrat Light" letter-spacing="0.08em">-----------------</text><path d="M419.33,277.68s5.85-10.92,10.92-12.87c0,0,1.95-3.71-3.32-1.76a4.58,4.58,0,0,0,1.75-2.32.45.45,0,0,0-.46-.6c-2.35.14-10.43,1.62-13.57,15.21l4.48,3.31" fill="#ffb2b6"/><rect x="347.49" y="436.44" width="5.82" height="3.14" fill="#e9cacd"/><rect x="384.06" y="436.44" width="5.82" height="3.14" fill="#e9cacd"/><path d="M347.05,438.75v4.34h13.78S363.12,435.9,347.05,438.75Z" fill="#2a2a2a"/><path d="M383.71,438.75v4.34h13.77S399.78,435.9,383.71,438.75Z" fill="#2a2a2a"/><path d="M350.23,340.91,352.06,398a23.64,23.64,0,0,1-.26,4.2l-5.36,34.37h10.42l7.27-35.88a22.83,22.83,0,0,0,.4-3.07l2.14-34.07a.44.44,0,0,1,.85-.13l11.14,29.35a9,9,0,0,1,.56,2.45l3.68,41.35h9l.46-44.94a9.24,9.24,0,0,0-.19-2L382,340.44Z" fill="url(#linear-gradient-10)"/><path d="M346.05,323.05l3,1.64.53-6.58-3.7,4A.6.6,0,0,0,346.05,323.05Z" fill="none"/><path d="M413.08,271.67,401,288.5a7.2,7.2,0,0,1-5.52,3l-43.52-2.82-.52,6.53,2-2.82,1.9,1.9.95,16.57-6.68,7.26-.53,6.58,9.57,5.22-6.39,9.94-4.15-2.94-1.16,14.59,38.56-4.59L381,305.05l20.29-2.54a7.16,7.16,0,0,0,5.35-2.57l16-21.61Z" fill="url(#GradientFill_15-2)"/><path d="M346.05,323.05a.6.6,0,0,1-.16-.93l3.7-4,1.82-22.91-.35.5L334.5,319.19a6.62,6.62,0,0,0,1.58,9.21l12,8.51,1-12.22Z" fill="url(#GradientFill_15-3)"/><polygon points="356.27 310.85 355.32 294.28 353.43 292.38 351.41 295.2 349.59 318.11 356.27 310.85" fill="url(#GradientFill_15-4)"/><polygon points="356.27 310.85 355.32 294.28 353.43 292.38 351.41 295.2 349.59 318.11 356.27 310.85" fill="url(#GradientFill_15-5)"/><polygon points="358.63 329.91 349.06 324.69 348.09 336.91 352.24 339.85 358.63 329.91" fill="url(#GradientFill_15-6)"/><polygon points="358.63 329.91 349.06 324.69 348.09 336.91 352.24 339.85 358.63 329.91" fill="url(#GradientFill_15-7)"/><path d="M376.43,270.5a23.28,23.28,0,0,1,3.67,4.5l-1.17,1,1.67,4.5-7.84,2-5.5-13.5Z" fill="#ffb2b6"/><path d="M367.32,261.94c3-1,6.26.48,8.31,3.63a16.21,16.21,0,0,1,1.85,11.93c1.95-.62,4.12.36,5.44,2.47a10.62,10.62,0,0,1,1.05,7.89,9.13,9.13,0,0,1,4.81,2.4,6.59,6.59,0,0,1,1.29,6.39c-1,2.35-3.28,2.57-5.21,2.51l-37.19-1.22a5.22,5.22,0,0,1-2.85-.67c-1.67-1.14-2.4-4.37-1.5-6.64s3.25-3.1,4.81-1.71c-2-1.77-2.79-5.84-1.66-8.77s4-4.29,6.13-2.91c-2.08-3.42-1.67-8.93.38-12.38a10.41,10.41,0,0,1,8.56-5.19c3.19-.17,6.35.93,9.46,2,0,1.47,0,2.94,0,4.41" fill="url(#linear-gradient-11)"/></g></g></svg>